<svg width="25" height="25" viewBox="0 0 25 25" xmlns="http://www.w3.org/2000/svg">
<path d="M20.8334 17.7089V11.9298C20.8334 11.3732 20.8329 11.0948 20.7652 10.8358C20.7052 10.6062 20.6068 10.389 20.4735 10.1928C20.3232 9.97127 20.1141 9.7876 19.6953 9.42108L14.6953 5.04608C13.9175 4.36557 13.5287 4.02549 13.091 3.89607C12.7054 3.78204 12.2944 3.78204 11.9088 3.89607C11.4715 4.0254 11.0832 4.36515 10.3066 5.04463L5.30499 9.42108C4.8861 9.78761 4.67715 9.97127 4.52679 10.1928C4.39355 10.389 4.29434 10.6062 4.23437 10.8358C4.16669 11.0948 4.16669 11.3732 4.16669 11.9298V17.7089C4.16669 18.6796 4.16669 19.1648 4.32527 19.5477C4.53672 20.0581 4.94202 20.4642 5.45249 20.6757C5.83535 20.8342 6.32071 20.8342 7.29142 20.8342C8.26213 20.8342 8.74802 20.8342 9.13088 20.6757C9.64136 20.4642 10.0466 20.0582 10.258 19.5478C10.4166 19.1649 10.4167 18.6795 10.4167 17.7088V16.6672C10.4167 15.5166 11.3494 14.5838 12.5 14.5838C13.6506 14.5838 14.5834 15.5166 14.5834 16.6672V17.7088C14.5834 18.6795 14.5834 19.1649 14.7419 19.5478C14.9534 20.0582 15.3587 20.4642 15.8692 20.6757C16.252 20.8342 16.7374 20.8342 17.7081 20.8342C18.6788 20.8342 19.1647 20.8342 19.5475 20.6757C20.058 20.4642 20.4632 20.0581 20.6747 19.5477C20.8332 19.1648 20.8334 18.6796 20.8334 17.7089Z" stroke="currentColor"  stroke-width="1.5" stroke-linecap="round" stroke-linejoin="round"/>
</svg>
