<svg width="22" height="22" viewBox="0 0 22 22" fill="none" xmlns="http://www.w3.org/2000/svg">
<g clip-path="url(#clip0_12044_898)">
<path d="M21.774 12.0744L15.7662 0.775313C15.713 0.675983 15.6371 0.593689 15.546 0.536643C15.4548 0.479596 15.3516 0.44979 15.2467 0.450199C15.1414 0.450395 15.0382 0.481935 14.948 0.541459C14.8114 0.629003 14.7121 0.772423 14.6716 0.940283C14.6312 1.10814 14.6531 1.28675 14.7324 1.43695L20.7428 12.7418C20.776 12.805 20.7967 12.8754 20.8033 12.948C20.81 13.0207 20.8025 13.0941 20.7814 13.1634C20.7603 13.2327 20.726 13.2963 20.6808 13.3499C20.6357 13.4036 20.5807 13.4461 20.5194 13.4747L19.7922 13.5146H9.35059C9.32749 13.5143 9.30472 13.5207 9.28463 13.5332C9.26454 13.5457 9.24786 13.5639 9.23631 13.5859L8.67787 14.6411C8.66759 14.658 8.66211 14.6778 8.66211 14.6981C8.66211 14.7184 8.66759 14.7383 8.67787 14.7552C8.6865 14.7734 8.69957 14.7886 8.71562 14.7992C8.73166 14.8098 8.75006 14.8153 8.76878 14.8151H20.335C20.6265 14.8135 20.9126 14.7281 21.1646 14.5673C21.4167 14.4064 21.6259 14.1759 21.7715 13.8986C21.9171 13.6213 21.994 13.3069 21.9944 12.9869C21.9948 12.6668 21.9188 12.3522 21.774 12.0744Z" fill="currentColor"/>
<path d="M16.922 12.3225C16.931 12.3402 16.9442 12.3549 16.9602 12.3649C16.9763 12.375 16.9945 12.3801 17.0129 12.3796H18.1454C18.1638 12.3801 18.1821 12.375 18.1981 12.3649C18.2141 12.3549 18.2273 12.3402 18.2363 12.3225C18.2465 12.3051 18.2519 12.2848 18.2519 12.2641C18.2519 12.2433 18.2465 12.2231 18.2363 12.2056L12.2519 0.781016C12.1998 0.680233 12.1242 0.596476 12.033 0.538341C11.9417 0.480205 11.8379 0.449784 11.7324 0.4502C11.6275 0.450758 11.5246 0.481223 11.4337 0.538608C11.366 0.581447 11.3066 0.63853 11.2589 0.706591C11.2113 0.774653 11.1763 0.852359 11.1561 0.935263C11.1358 1.01817 11.1306 1.10465 11.1408 1.18975C11.151 1.27485 11.1764 1.35692 11.2155 1.43124L16.922 12.3225Z" fill="currentColor"/>
<path d="M17.0548 20.6582L5.15092 20.6781C5.06805 20.6787 4.98655 20.6549 4.91485 20.6093C4.84315 20.5637 4.78387 20.4978 4.74313 20.4186C4.68836 20.3164 4.66812 20.1962 4.68598 20.0792L5.02624 19.352L10.299 9.31343C10.3086 9.2963 10.3137 9.27654 10.3137 9.25639C10.3137 9.23624 10.3086 9.21649 10.299 9.19935L9.73274 8.12135C9.72375 8.10352 9.71058 8.08866 9.6946 8.07831C9.67861 8.06796 9.66039 8.0625 9.64183 8.0625C9.62327 8.0625 9.60505 8.06796 9.58906 8.07831C9.57308 8.08866 9.5599 8.10352 9.55092 8.12135L3.71196 19.2436C3.69486 19.276 3.67925 19.3093 3.6652 19.3435C3.55657 19.5864 3.49793 19.8525 3.49344 20.1231C3.48895 20.3937 3.53873 20.662 3.63923 20.9091C3.77037 21.2291 3.98323 21.5005 4.25201 21.6903C4.52079 21.8801 4.83394 21.9802 5.15352 21.9786L17.0574 21.9586C17.139 21.9645 17.2208 21.952 17.2978 21.9218C17.3748 21.8916 17.4454 21.8443 17.5051 21.783C17.5647 21.7216 17.6123 21.6475 17.6449 21.5651C17.6774 21.4827 17.6942 21.3939 17.6942 21.3041C17.6942 21.2143 17.6774 21.1255 17.6449 21.0431C17.6123 20.9608 17.5647 20.8866 17.5051 20.8253C17.4454 20.7639 17.3748 20.7167 17.2978 20.6864C17.2208 20.6562 17.139 20.6437 17.0574 20.6496L17.0548 20.6582Z" fill="currentColor"/>
<path d="M18.8233 17.2504L7.38172 17.2305C7.36274 17.2307 7.34412 17.2363 7.32773 17.2468C7.31133 17.2573 7.29771 17.2723 7.28821 17.2904L6.72458 18.3655C6.7144 18.383 6.70898 18.4033 6.70898 18.424C6.70898 18.4447 6.7144 18.465 6.72458 18.4824C6.73378 18.4999 6.74704 18.5144 6.76301 18.5245C6.77898 18.5345 6.79709 18.5397 6.81549 18.5395L18.8207 18.5623C18.9791 18.5623 19.1311 18.4932 19.2431 18.3702C19.3551 18.2472 19.4181 18.0803 19.4181 17.9064C19.4181 17.7324 19.3551 17.5656 19.2431 17.4425C19.1311 17.3195 18.9791 17.2504 18.8207 17.2504H18.8233Z" fill="currentColor"/>
<path d="M14.4471 12.2056L8.75098 1.36855C8.738 1.34288 8.72241 1.32006 8.70942 1.29725C8.55453 1.0355 8.341 0.821825 8.0893 0.676702C7.83761 0.53158 7.55618 0.459876 7.27199 0.468463C6.98781 0.477051 6.71039 0.565643 6.46635 0.725747C6.2223 0.885851 6.0198 1.1121 5.87825 1.3828L0.0912414 12.3768C0.0393638 12.4766 0.0122793 12.5896 0.0127001 12.7045C0.013121 12.8194 0.0410323 12.9322 0.0936391 13.0316C0.146246 13.1309 0.221702 13.2133 0.312451 13.2706C0.4032 13.3279 0.506057 13.3579 0.610722 13.3578C0.715842 13.3576 0.819094 13.3273 0.910223 13.2697C1.00135 13.2122 1.07719 13.1295 1.1302 13.0298L6.90163 2.01877C6.94258 1.93973 7.00191 1.87406 7.07356 1.82846C7.14521 1.78286 7.22661 1.75898 7.30942 1.75925C7.3785 1.75935 7.44673 1.77589 7.50942 1.80773L7.91462 2.40377L12.4133 10.9508V10.9708L13.125 12.3226C13.134 12.3403 13.1472 12.3549 13.1632 12.365C13.1793 12.375 13.1975 12.3801 13.2159 12.3796H14.3484C14.3668 12.3792 14.3848 12.3736 14.4006 12.3633C14.4164 12.353 14.4296 12.3384 14.4387 12.3209C14.4479 12.3034 14.4527 12.2836 14.4528 12.2634C14.4529 12.2432 14.4483 12.2233 14.4393 12.2056H14.4471Z" fill="currentColor"/>
<path d="M7.84377 4.53168C7.83415 4.51396 7.82043 4.49935 7.80401 4.48933C7.78759 4.47932 7.76904 4.47425 7.75026 4.47464C7.73181 4.47416 7.7136 4.47921 7.69757 4.48926C7.68155 4.49932 7.66834 4.51398 7.65935 4.53168L1.72429 15.7823C1.64507 15.9336 1.62382 16.1132 1.66523 16.2817C1.70663 16.4501 1.80729 16.5937 1.94507 16.6806C2.08284 16.7676 2.24644 16.791 2.39988 16.7455C2.55332 16.7 2.68403 16.5895 2.76325 16.4382L8.40221 5.72376C8.41239 5.70631 8.4178 5.68602 8.4178 5.6653C8.4178 5.64457 8.41239 5.62428 8.40221 5.60683L7.84377 4.53168Z" fill="currentColor"/>
</g>
<defs>
<clipPath id="clip0_12044_898">
<rect width="22" height="21.5345" fill="currentColor" transform="translate(0 0.450195)"/>
</clipPath>
</defs>
</svg>
