<svg width="299" height="104" viewBox="0 0 299 104" fill="none" xmlns="http://www.w3.org/2000/svg">
<path d="M141.824 74V62.8H143.008V72.976H149.28V74H141.824ZM153.635 74.096C152.205 74.096 151.08 73.6853 150.259 72.864C149.437 72.0427 149.027 70.8267 149.027 69.216V62.8H150.211V69.168C150.211 70.4907 150.509 71.4667 151.107 72.096C151.704 72.7253 152.547 73.04 153.635 73.04C154.733 73.04 155.581 72.7253 156.179 72.096C156.776 71.4667 157.075 70.4907 157.075 69.168V62.8H158.227V69.216C158.227 70.8267 157.816 72.0427 156.995 72.864C156.184 73.6853 155.064 74.096 153.635 74.096ZM158.166 74L162.758 67.792V68.704L158.438 62.8H159.798L163.43 67.728L162.902 67.744L166.534 62.8H167.814L163.542 68.624V67.792L168.118 74H166.742L162.87 68.736H163.366L159.526 74H158.166ZM168.964 67.808H174.884V68.816H168.964V67.808ZM169.092 72.976H175.828V74H167.908V62.8H175.588V63.824H169.092V72.976ZM176.691 74V62.8H177.667L182.787 71.536H182.275L187.347 62.8H188.323V74H187.187V64.576H187.459L182.787 72.576H182.227L177.523 64.576H177.827V74H176.691ZM190.052 74V62.8H194.884C196.132 62.8 197.097 63.0507 197.78 63.552C198.473 64.0533 198.82 64.7627 198.82 65.68C198.82 66.288 198.676 66.8 198.388 67.216C198.111 67.632 197.727 67.9467 197.236 68.16C196.756 68.3733 196.228 68.48 195.652 68.48L195.924 68.096C196.639 68.096 197.252 68.208 197.764 68.432C198.287 68.6453 198.692 68.9707 198.98 69.408C199.268 69.8347 199.412 70.368 199.412 71.008C199.412 71.9573 199.06 72.6933 198.356 73.216C197.663 73.7387 196.612 74 195.204 74H190.052ZM191.236 73.024H195.188C196.169 73.024 196.921 72.8587 197.444 72.528C197.967 72.1867 198.228 71.648 198.228 70.912C198.228 70.1867 197.967 69.6587 197.444 69.328C196.921 68.9867 196.169 68.816 195.188 68.816H191.108V67.84H194.804C195.7 67.84 196.393 67.6693 196.884 67.328C197.385 66.9867 197.636 66.48 197.636 65.808C197.636 65.1253 197.385 64.6187 196.884 64.288C196.393 63.9467 195.7 63.776 194.804 63.776H191.236V73.024ZM205.091 74.096C204.248 74.096 203.464 73.9573 202.739 73.68C202.024 73.392 201.4 72.992 200.867 72.48C200.344 71.9573 199.933 71.3547 199.635 70.672C199.347 69.9787 199.203 69.2213 199.203 68.4C199.203 67.5787 199.347 66.8267 199.635 66.144C199.933 65.4507 200.344 64.848 200.867 64.336C201.4 63.8133 202.024 63.4133 202.739 63.136C203.453 62.848 204.237 62.704 205.091 62.704C205.933 62.704 206.712 62.848 207.427 63.136C208.141 63.4133 208.76 63.808 209.283 64.32C209.816 64.832 210.227 65.4347 210.515 66.128C210.813 66.8213 210.963 67.5787 210.963 68.4C210.963 69.2213 210.813 69.9787 210.515 70.672C210.227 71.3653 209.816 71.968 209.283 72.48C208.76 72.992 208.141 73.392 207.427 73.68C206.712 73.9573 205.933 74.096 205.091 74.096ZM205.091 73.04C205.763 73.04 206.381 72.928 206.947 72.704C207.523 72.4693 208.019 72.144 208.435 71.728C208.861 71.3013 209.192 70.8107 209.427 70.256C209.661 69.6907 209.779 69.072 209.779 68.4C209.779 67.728 209.661 67.1147 209.427 66.56C209.192 65.9947 208.861 65.504 208.435 65.088C208.019 64.6613 207.523 64.336 206.947 64.112C206.381 63.8773 205.763 63.76 205.091 63.76C204.419 63.76 203.795 63.8773 203.219 64.112C202.643 64.336 202.141 64.6613 201.715 65.088C201.299 65.504 200.968 65.9947 200.723 66.56C200.488 67.1147 200.371 67.728 200.371 68.4C200.371 69.0613 200.488 69.6747 200.723 70.24C200.968 70.8053 201.299 71.3013 201.715 71.728C202.141 72.144 202.643 72.4693 203.219 72.704C203.795 72.928 204.419 73.04 205.091 73.04ZM216.208 74.096C214.779 74.096 213.654 73.6853 212.832 72.864C212.011 72.0427 211.6 70.8267 211.6 69.216V62.8H212.784V69.168C212.784 70.4907 213.083 71.4667 213.68 72.096C214.278 72.7253 215.12 73.04 216.208 73.04C217.307 73.04 218.155 72.7253 218.752 72.096C219.35 71.4667 219.648 70.4907 219.648 69.168V62.8H220.8V69.216C220.8 70.8267 220.39 72.0427 219.568 72.864C218.758 73.6853 217.638 74.096 216.208 74.096ZM222.448 74V62.8H226.64C227.59 62.8 228.406 62.9547 229.088 63.264C229.771 63.5627 230.294 64 230.656 64.576C231.03 65.1413 231.216 65.8293 231.216 66.64C231.216 67.4293 231.03 68.112 230.656 68.688C230.294 69.2533 229.771 69.6907 229.088 70C228.406 70.2987 227.59 70.448 226.64 70.448H223.104L223.632 69.904V74H222.448ZM230.096 74L227.216 69.936H228.496L231.392 74H230.096ZM223.632 70L223.104 69.44H226.608C227.728 69.44 228.576 69.1947 229.152 68.704C229.739 68.2133 230.032 67.5253 230.032 66.64C230.032 65.744 229.739 65.0507 229.152 64.56C228.576 64.0693 227.728 63.824 226.608 63.824H223.104L223.632 63.264V70ZM237.003 74.096C236.15 74.096 235.36 73.9573 234.635 73.68C233.92 73.392 233.296 72.992 232.763 72.48C232.24 71.968 231.83 71.3653 231.531 70.672C231.243 69.9787 231.099 69.2213 231.099 68.4C231.099 67.5787 231.243 66.8213 231.531 66.128C231.83 65.4347 232.246 64.832 232.779 64.32C233.312 63.808 233.936 63.4133 234.651 63.136C235.376 62.848 236.166 62.704 237.019 62.704C237.872 62.704 238.651 62.8373 239.355 63.104C240.07 63.3707 240.678 63.776 241.179 64.32L240.443 65.072C239.974 64.6027 239.456 64.2667 238.891 64.064C238.326 63.8613 237.718 63.76 237.067 63.76C236.374 63.76 235.734 63.8773 235.147 64.112C234.571 64.336 234.064 64.6613 233.627 65.088C233.2 65.504 232.864 65.9947 232.619 66.56C232.384 67.1147 232.267 67.728 232.267 68.4C232.267 69.0613 232.384 69.6747 232.619 70.24C232.864 70.8053 233.2 71.3013 233.627 71.728C234.064 72.144 234.571 72.4693 235.147 72.704C235.734 72.928 236.368 73.04 237.051 73.04C237.691 73.04 238.294 72.944 238.859 72.752C239.435 72.56 239.963 72.2347 240.443 71.776L241.115 72.672C240.582 73.1413 239.958 73.4987 239.243 73.744C238.528 73.9787 237.782 74.096 237.003 74.096ZM239.979 72.528V68.4H241.115V72.672L239.979 72.528Z" fill="black"/>
<path d="M69 76V0H106.09C115.622 0 122.736 1.84571 127.432 5.53714C132.129 9.15619 134.477 13.9333 134.477 19.8686C134.477 23.7771 133.476 27.2152 131.473 30.1829C129.539 33.0781 126.776 35.3943 123.185 37.1314C119.662 38.7962 115.449 39.6286 110.545 39.6286L112.617 34.4171C117.728 34.4171 122.183 35.2495 125.982 36.9143C129.781 38.5067 132.716 40.859 134.788 43.9714C136.929 47.0114 138 50.739 138 55.1543C138 61.7409 135.444 66.88 130.333 70.5714C125.291 74.1905 117.901 76 108.162 76H69ZM89.3063 60.4743H106.505C110.027 60.4743 112.686 59.859 114.482 58.6286C116.347 57.3257 117.279 55.3714 117.279 52.7657C117.279 50.16 116.347 48.2419 114.482 47.0114C112.686 45.7086 110.027 45.0571 106.505 45.0571H87.8559V30.1829H103.396C106.85 30.1829 109.44 29.5676 111.167 28.3371C112.893 27.1067 113.757 25.261 113.757 22.8C113.757 20.339 112.893 18.5295 111.167 17.3714C109.44 16.141 106.85 15.5257 103.396 15.5257H89.3063V60.4743Z" fill="black"/>
<rect width="69" height="76" fill="#4B93FF"/>
<path d="M69 76V0H34.7674C27.9209 0 22.0372 1.12191 17.1163 3.36572C12.124 5.60953 8.27287 8.86667 5.56279 13.1371C2.85271 17.3352 1.49767 22.3295 1.49767 28.12C1.49767 33.8381 2.85271 38.7962 5.56279 42.9943C8.27287 47.12 12.124 50.3048 17.1163 52.5486C22.0372 54.72 27.9209 55.8057 34.7674 55.8057H57.2326L47.8186 46.7943V76H69ZM22.6791 76L41.293 48.3143H18.7209L0 76H22.6791ZM47.8186 49.0743L57.2326 39.1943H36.0512C31.6295 39.1943 28.3488 38.2171 26.2093 36.2629C23.9984 34.3086 22.893 31.5943 22.893 28.12C22.893 24.5733 23.9984 21.8229 26.2093 19.8686C28.3488 17.9143 31.6295 16.9371 36.0512 16.9371H57.2326L47.8186 7.05714V49.0743Z" fill="white"/>
</svg>
