<svg xmlns="http://www.w3.org/2000/svg" version="1.1" xmlns:xlink="http://www.w3.org/1999/xlink" width="1000" height="1000"><g clip-path="url(#SvgjsClipPath1946)"><rect width="1000" height="1000" fill="#ff4f4f"></rect><g transform="matrix(3.167420814479638,0,0,3.167420814479638,150,165.83710407239823)"><svg xmlns="http://www.w3.org/2000/svg" version="1.1" xmlns:xlink="http://www.w3.org/1999/xlink" width="221" height="211"><svg width="221" height="211" viewBox="0 0 221 211" fill="none" xmlns="http://www.w3.org/2000/svg">
<path d="M13.6762 103.402L54.287 103.402L136.344 188.901L92.1234 188.901L13.6762 103.402Z" fill="black"></path>
<path d="M75.6729 50.3953L105.284 80.0064V132.648L75.6729 113.752V50.3953Z" fill="black"></path>
<path d="M31.2562 80.0064L0 50.3953H75.6729L105.284 80.0064L31.2562 80.0064Z" fill="black"></path>
<path d="M174.377 50.3953L203.988 80.0064V132.648L174.377 113.752V50.3953Z" fill="black"></path>
<path d="M128.315 80.0064L98.7037 50.3953H174.377L203.988 80.0064H128.315Z" fill="black"></path>
<path d="M190.827 103.037L220.438 132.648V188.581L190.827 159.75V103.037Z" fill="black"></path>
<path d="M144.765 132.648L115.154 103.037H190.827L220.438 132.648H144.765Z" fill="black"></path>
<path d="M40.5097 132.648L13.1605 103.037H79.3743L105.284 132.648H40.5097Z" fill="black"></path>
<path d="M175.562 0L176.235 13.6147L198.461 35.8402L198.184 22.6224L175.562 0Z" fill="black"></path>
<path d="M166 12.2706L179.133 24.5415L219.992 24.5415L207.588 12.2706L166 12.2706Z" fill="black"></path>
</svg></svg></g></g><defs><clipPath id="SvgjsClipPath1946"><rect width="1000" height="1000" x="0" y="0" rx="350" ry="350"></rect></clipPath></defs></svg>