<svg width="60" height="33" viewBox="0 0 60 33" fill="none" xmlns="http://www.w3.org/2000/svg">
<path d="M29.7002 33V0H45.6651C49.7678 0 52.8299 0.801428 54.8515 2.40429C56.8732 3.97571 57.884 6.05 57.884 8.62714C57.884 10.3243 57.4529 11.8171 56.5907 13.1057C55.7583 14.3629 54.5691 15.3686 53.0232 16.1229C51.507 16.8457 49.6934 17.2071 47.5826 17.2071L48.4745 14.9443C50.6745 14.9443 52.5921 15.3057 54.2272 16.0286C55.8624 16.72 57.1259 17.7414 58.0178 19.0929C58.9394 20.4129 59.4002 22.0314 59.4002 23.9486C59.4002 26.8086 58.3002 29.04 56.1002 30.6429C53.9299 32.2143 50.7488 33 46.557 33H29.7002ZM38.4407 26.2586H45.8434C47.3597 26.2586 48.5042 25.9914 49.2772 25.4571C50.0799 24.8914 50.4813 24.0429 50.4813 22.9114C50.4813 21.78 50.0799 20.9471 49.2772 20.4129C48.5042 19.8471 47.3597 19.5643 45.8434 19.5643H37.8164V13.1057H44.5056C45.9921 13.1057 47.107 12.8386 47.8502 12.3043C48.5934 11.77 48.9651 10.9686 48.9651 9.9C48.9651 8.83143 48.5934 8.04571 47.8502 7.54286C47.107 7.00857 45.9921 6.74143 44.5056 6.74143H38.4407V26.2586Z" fill="black"/>
<path d="M29.7 33V0H14.9651C12.0181 0 9.48558 0.487143 7.36744 1.46143C5.21861 2.43572 3.56093 3.85 2.39442 5.70428C1.22791 7.52714 0.644651 9.69571 0.644651 12.21C0.644651 14.6929 1.22791 16.8457 2.39442 18.6686C3.56093 20.46 5.21861 21.8429 7.36744 22.8171C9.48558 23.76 12.0181 24.2314 14.9651 24.2314H24.6349L20.5828 20.3186V33H29.7ZM9.76186 33L17.774 20.9786H8.05814L0 33H9.76186ZM20.5828 21.3086L24.6349 17.0186H15.5177C13.6144 17.0186 12.2023 16.5943 11.2814 15.7457C10.3298 14.8971 9.85395 13.7186 9.85395 12.21C9.85395 10.67 10.3298 9.47571 11.2814 8.62714C12.2023 7.77857 13.6144 7.35429 15.5177 7.35429H24.6349L20.5828 3.06429V21.3086Z" fill="white"/>
</svg>
