<svg width="51" height="36" viewBox="0 0 51 36" fill="none" xmlns="http://www.w3.org/2000/svg">
<path d="M2.53314 15.8176L10.0548 15.8176L25.2529 31.6532L17.0626 31.6532L2.53314 15.8176Z" fill="white"/>
<path d="M14.0156 6L19.5 11.4844V21.2344L14.0156 17.7346V6Z" fill="white"/>
<path d="M5.78906 11.4844L0 6L14.0156 6L19.5 11.4844L5.78906 11.4844Z" fill="white"/>
<path d="M32.2969 6L37.7812 11.4844V21.2344L32.2969 17.7346V6Z" fill="white"/>
<path d="M23.7656 11.4844L18.2812 6L32.2969 6L37.7812 11.4844L23.7656 11.4844Z" fill="white"/>
<path d="M35.3438 15.75L40.8281 21.2344V31.5938L35.3438 26.254V15.75Z" fill="white"/>
<path d="M26.8125 21.2344L21.3281 15.75H35.3438L40.8281 21.2344H26.8125Z" fill="white"/>
<path d="M7.50293 21.2344L2.4375 15.75H14.7012L19.5 21.2344H7.50293Z" fill="white"/>
<path d="M42.7241 0L42.8488 2.52162L46.9653 6.63808L46.9141 4.18997L42.7241 0Z" fill="black"/>
<path d="M40.9531 2.27283L43.3856 4.54555L50.9531 4.54555L48.6558 2.27283L40.9531 2.27283Z" fill="black"/>
</svg>
