<svg width="299" height="104" viewBox="0 0 299 104" fill="none" xmlns="http://www.w3.org/2000/svg">
<path d="M140.032 74L145.152 62.8H146.32L151.44 74H150.192L145.488 63.488H145.968L141.264 74H140.032ZM142.048 71.008L142.4 70.048H148.912L149.264 71.008H142.048ZM151.373 74V62.8H152.557V72.976H158.829V74H151.373ZM163.568 74.096C162.715 74.096 161.925 73.9573 161.2 73.68C160.485 73.392 159.861 72.992 159.328 72.48C158.805 71.968 158.395 71.3653 158.096 70.672C157.808 69.9787 157.664 69.2213 157.664 68.4C157.664 67.5787 157.808 66.8213 158.096 66.128C158.395 65.4347 158.811 64.832 159.344 64.32C159.877 63.808 160.501 63.4133 161.216 63.136C161.941 62.848 162.731 62.704 163.584 62.704C164.437 62.704 165.216 62.8373 165.92 63.104C166.635 63.3707 167.243 63.776 167.744 64.32L167.008 65.072C166.539 64.6027 166.021 64.2667 165.456 64.064C164.891 63.8613 164.283 63.76 163.632 63.76C162.939 63.76 162.299 63.8773 161.712 64.112C161.136 64.336 160.629 64.6613 160.192 65.088C159.765 65.504 159.429 65.9947 159.184 66.56C158.949 67.1147 158.832 67.728 158.832 68.4C158.832 69.0613 158.949 69.6747 159.184 70.24C159.429 70.8053 159.765 71.3013 160.192 71.728C160.629 72.144 161.136 72.4693 161.712 72.704C162.299 72.928 162.933 73.04 163.616 73.04C164.256 73.04 164.859 72.944 165.424 72.752C166 72.56 166.528 72.2347 167.008 71.776L167.68 72.672C167.147 73.1413 166.523 73.4987 165.808 73.744C165.093 73.9787 164.347 74.096 163.568 74.096ZM166.544 72.528V68.4H167.68V72.672L166.544 72.528ZM170.167 67.808H176.087V68.816H170.167V67.808ZM170.295 72.976H177.031V74H169.111V62.8H176.791V63.824H170.295V72.976ZM177.894 74V62.8H182.086C183.035 62.8 183.851 62.9547 184.534 63.264C185.217 63.5627 185.739 64 186.102 64.576C186.475 65.1413 186.662 65.8293 186.662 66.64C186.662 67.4293 186.475 68.112 186.102 68.688C185.739 69.2533 185.217 69.6907 184.534 70C183.851 70.2987 183.035 70.448 182.086 70.448H178.55L179.078 69.904V74H177.894ZM185.542 74L182.662 69.936H183.942L186.838 74H185.542ZM179.078 70L178.55 69.44H182.054C183.174 69.44 184.022 69.1947 184.598 68.704C185.185 68.2133 185.478 67.5253 185.478 66.64C185.478 65.744 185.185 65.0507 184.598 64.56C184.022 64.0693 183.174 63.824 182.054 63.824H178.55L179.078 63.264V70ZM187.537 74V62.8H188.721V74H187.537ZM188.653 74L193.773 62.8H194.941L200.061 74H198.813L194.109 63.488H194.589L189.885 74H188.653ZM190.669 71.008L191.021 70.048H197.533L197.885 71.008H190.669Z" fill="black"/>
<path d="M69 76V0H106.09C115.622 0 122.736 1.84571 127.432 5.53714C132.129 9.15619 134.477 13.9333 134.477 19.8686C134.477 23.7771 133.476 27.2152 131.473 30.1829C129.539 33.0781 126.776 35.3943 123.185 37.1314C119.662 38.7962 115.449 39.6286 110.545 39.6286L112.617 34.4171C117.728 34.4171 122.183 35.2495 125.982 36.9143C129.781 38.5067 132.716 40.859 134.788 43.9714C136.929 47.0114 138 50.739 138 55.1543C138 61.7409 135.444 66.88 130.333 70.5714C125.291 74.1905 117.901 76 108.162 76H69ZM89.3063 60.4743H106.505C110.027 60.4743 112.686 59.859 114.482 58.6286C116.347 57.3257 117.279 55.3714 117.279 52.7657C117.279 50.16 116.347 48.2419 114.482 47.0114C112.686 45.7086 110.027 45.0571 106.505 45.0571H87.8559V30.1829H103.396C106.85 30.1829 109.44 29.5676 111.167 28.3371C112.893 27.1067 113.757 25.261 113.757 22.8C113.757 20.339 112.893 18.5295 111.167 17.3714C109.44 16.141 106.85 15.5257 103.396 15.5257H89.3063V60.4743Z" fill="black"/>
<rect width="69" height="76" fill="#276902"/>
<path d="M69 76V0H34.7674C27.9209 0 22.0372 1.12191 17.1163 3.36572C12.124 5.60953 8.27287 8.86667 5.56279 13.1371C2.85271 17.3352 1.49767 22.3295 1.49767 28.12C1.49767 33.8381 2.85271 38.7962 5.56279 42.9943C8.27287 47.12 12.124 50.3048 17.1163 52.5486C22.0372 54.72 27.9209 55.8057 34.7674 55.8057H57.2326L47.8186 46.7943V76H69ZM22.6791 76L41.293 48.3143H18.7209L0 76H22.6791ZM47.8186 49.0743L57.2326 39.1943H36.0512C31.6295 39.1943 28.3488 38.2171 26.2093 36.2629C23.9984 34.3086 22.893 31.5943 22.893 28.12C22.893 24.5733 23.9984 21.8229 26.2093 19.8686C28.3488 17.9143 31.6295 16.9371 36.0512 16.9371H57.2326L47.8186 7.05714V49.0743Z" fill="white"/>
</svg>
