<svg width="284" height="120" viewBox="0 0 284 120" fill="none" xmlns="http://www.w3.org/2000/svg">
<path d="M6.90838 43.1385L27.422 43.1385L68.8714 86.3264L46.5342 86.3264L6.90838 43.1385Z" fill="#276902"/>
<path d="M38.2246 16.3635L53.182 31.3209V57.9118L38.2246 48.3669V16.3635Z" fill="#276902"/>
<path d="M15.7884 31.321L0 16.3637H38.2244L53.1818 31.321L15.7884 31.321Z" fill="#276902"/>
<path d="M88.0825 16.3635L103.04 31.3209V57.9118L88.0825 48.3669V16.3635Z" fill="#276902"/>
<path d="M64.8153 31.321L49.8579 16.3637H88.0823L103.04 31.321L64.8153 31.321Z" fill="#276902"/>
<path d="M96.3921 42.9546L111.349 57.912V86.1648L96.3921 71.6019V42.9546Z" fill="#276902"/>
<path d="M73.1249 57.9119L58.1675 42.9545H96.3919L111.349 57.9119H73.1249Z" fill="#276902"/>
<path d="M20.4628 57.9119L6.64795 42.9545H40.0943L53.182 57.9119H20.4628Z" fill="#276902"/>
<path d="M116.52 0L116.86 6.87714L128.087 18.1039L127.947 11.4272L116.52 0Z" fill="black"/>
<path d="M111.69 6.19824L118.324 12.3966L138.963 12.3966L132.697 6.19824L111.69 6.19824Z" fill="black"/>
<path d="M125.032 90L130.152 78.8H131.32L136.44 90H135.192L130.488 79.488H130.968L126.264 90H125.032ZM127.048 87.008L127.4 86.048H133.912L134.264 87.008H127.048ZM136.373 90V78.8H137.557V88.976H143.829V90H136.373ZM148.568 90.096C147.715 90.096 146.925 89.9573 146.2 89.68C145.485 89.392 144.861 88.992 144.328 88.48C143.805 87.968 143.395 87.3653 143.096 86.672C142.808 85.9787 142.664 85.2213 142.664 84.4C142.664 83.5787 142.808 82.8213 143.096 82.128C143.395 81.4347 143.811 80.832 144.344 80.32C144.877 79.808 145.501 79.4133 146.216 79.136C146.941 78.848 147.731 78.704 148.584 78.704C149.437 78.704 150.216 78.8373 150.92 79.104C151.635 79.3707 152.243 79.776 152.744 80.32L152.008 81.072C151.539 80.6027 151.021 80.2667 150.456 80.064C149.891 79.8613 149.283 79.76 148.632 79.76C147.939 79.76 147.299 79.8773 146.712 80.112C146.136 80.336 145.629 80.6613 145.192 81.088C144.765 81.504 144.429 81.9947 144.184 82.56C143.949 83.1147 143.832 83.728 143.832 84.4C143.832 85.0613 143.949 85.6747 144.184 86.24C144.429 86.8053 144.765 87.3013 145.192 87.728C145.629 88.144 146.136 88.4693 146.712 88.704C147.299 88.928 147.933 89.04 148.616 89.04C149.256 89.04 149.859 88.944 150.424 88.752C151 88.56 151.528 88.2347 152.008 87.776L152.68 88.672C152.147 89.1413 151.523 89.4987 150.808 89.744C150.093 89.9787 149.347 90.096 148.568 90.096ZM151.544 88.528V84.4H152.68V88.672L151.544 88.528ZM155.167 83.808H161.087V84.816H155.167V83.808ZM155.295 88.976H162.031V90H154.111V78.8H161.791V79.824H155.295V88.976ZM162.894 90V78.8H167.086C168.035 78.8 168.851 78.9547 169.534 79.264C170.217 79.5627 170.739 80 171.102 80.576C171.475 81.1413 171.662 81.8293 171.662 82.64C171.662 83.4293 171.475 84.112 171.102 84.688C170.739 85.2533 170.217 85.6907 169.534 86C168.851 86.2987 168.035 86.448 167.086 86.448H163.55L164.078 85.904V90H162.894ZM170.542 90L167.662 85.936H168.942L171.838 90H170.542ZM164.078 86L163.55 85.44H167.054C168.174 85.44 169.022 85.1947 169.598 84.704C170.185 84.2133 170.478 83.5253 170.478 82.64C170.478 81.744 170.185 81.0507 169.598 80.56C169.022 80.0693 168.174 79.824 167.054 79.824H163.55L164.078 79.264V86ZM172.537 90V78.8H173.721V90H172.537ZM173.653 90L178.773 78.8H179.941L185.061 90H183.813L179.109 79.488H179.589L174.885 90H173.653ZM175.669 87.008L176.021 86.048H182.533L182.885 87.008H175.669Z" fill="black"/>
</svg>
