<svg width="284" height="120" viewBox="0 0 284 120" fill="none" xmlns="http://www.w3.org/2000/svg">
<path d="M6.90838 43.1385L27.422 43.1385L68.8714 86.3264L46.5342 86.3264L6.90838 43.1385Z" fill="#FF1129"/>
<path d="M38.2246 16.3635L53.182 31.3209V57.9118L38.2246 48.3669V16.3635Z" fill="#FF1129"/>
<path d="M15.7884 31.321L0 16.3637H38.2244L53.1818 31.321L15.7884 31.321Z" fill="#FF1129"/>
<path d="M88.0825 16.3635L103.04 31.3209V57.9118L88.0825 48.3669V16.3635Z" fill="#FF1129"/>
<path d="M64.8153 31.321L49.8579 16.3637H88.0823L103.04 31.321L64.8153 31.321Z" fill="#FF1129"/>
<path d="M96.3921 42.9546L111.349 57.912V86.1648L96.3921 71.6019V42.9546Z" fill="#FF1129"/>
<path d="M73.1249 57.9119L58.1675 42.9545H96.3919L111.349 57.9119H73.1249Z" fill="#FF1129"/>
<path d="M20.4628 57.9119L6.64795 42.9545H40.0943L53.182 57.9119H20.4628Z" fill="#FF1129"/>
<path d="M116.52 0L116.86 6.87714L128.087 18.1039L127.947 11.4272L116.52 0Z" fill="black"/>
<path d="M111.69 6.19824L118.324 12.3966L138.963 12.3966L132.697 6.19824L111.69 6.19824Z" fill="black"/>
<path d="M126.824 90V78.8H131.656C132.904 78.8 133.869 79.0507 134.552 79.552C135.245 80.0533 135.592 80.7627 135.592 81.68C135.592 82.288 135.448 82.8 135.16 83.216C134.883 83.632 134.499 83.9467 134.008 84.16C133.528 84.3733 133 84.48 132.424 84.48L132.696 84.096C133.411 84.096 134.024 84.208 134.536 84.432C135.059 84.6453 135.464 84.9707 135.752 85.408C136.04 85.8347 136.184 86.368 136.184 87.008C136.184 87.9573 135.832 88.6933 135.128 89.216C134.435 89.7387 133.384 90 131.976 90H126.824ZM128.008 89.024H131.96C132.941 89.024 133.693 88.8587 134.216 88.528C134.739 88.1867 135 87.648 135 86.912C135 86.1867 134.739 85.6587 134.216 85.328C133.693 84.9867 132.941 84.816 131.96 84.816H127.88V83.84H131.576C132.472 83.84 133.165 83.6693 133.656 83.328C134.157 82.9867 134.408 82.48 134.408 81.808C134.408 81.1253 134.157 80.6187 133.656 80.288C133.165 79.9467 132.472 79.776 131.576 79.776H128.008V89.024ZM138.023 83.808H143.943V84.816H138.023V83.808ZM138.151 88.976H144.887V90H136.967V78.8H144.647V79.824H138.151V88.976ZM145.75 90V78.8H146.934V88.976H153.206V90H145.75ZM157.945 90.096C157.091 90.096 156.302 89.9573 155.577 89.68C154.862 89.392 154.238 88.992 153.705 88.48C153.182 87.968 152.771 87.3653 152.473 86.672C152.185 85.9787 152.041 85.2213 152.041 84.4C152.041 83.5787 152.185 82.8213 152.473 82.128C152.771 81.4347 153.187 80.832 153.721 80.32C154.254 79.808 154.878 79.4133 155.593 79.136C156.318 78.848 157.107 78.704 157.961 78.704C158.814 78.704 159.593 78.8373 160.297 79.104C161.011 79.3707 161.619 79.776 162.121 80.32L161.385 81.072C160.915 80.6027 160.398 80.2667 159.833 80.064C159.267 79.8613 158.659 79.76 158.009 79.76C157.315 79.76 156.675 79.8773 156.089 80.112C155.513 80.336 155.006 80.6613 154.569 81.088C154.142 81.504 153.806 81.9947 153.561 82.56C153.326 83.1147 153.209 83.728 153.209 84.4C153.209 85.0613 153.326 85.6747 153.561 86.24C153.806 86.8053 154.142 87.3013 154.569 87.728C155.006 88.144 155.513 88.4693 156.089 88.704C156.675 88.928 157.31 89.04 157.993 89.04C158.633 89.04 159.235 88.944 159.801 88.752C160.377 88.56 160.905 88.2347 161.385 87.776L162.057 88.672C161.523 89.1413 160.899 89.4987 160.185 89.744C159.47 89.9787 158.723 90.096 157.945 90.096ZM160.921 88.528V84.4H162.057V88.672L160.921 88.528ZM163.488 90V78.8H164.672V90H163.488ZM170.908 90.096C169.479 90.096 168.353 89.6853 167.532 88.864C166.711 88.0427 166.3 86.8267 166.3 85.216V78.8H167.484V85.168C167.484 86.4907 167.783 87.4667 168.38 88.096C168.977 88.7253 169.82 89.04 170.908 89.04C172.007 89.04 172.855 88.7253 173.452 88.096C174.049 87.4667 174.348 86.4907 174.348 85.168V78.8H175.5V85.216C175.5 86.8267 175.089 88.0427 174.268 88.864C173.457 89.6853 172.337 90.096 170.908 90.096ZM177.148 90V78.8H178.124L183.244 87.536H182.732L187.804 78.8H188.78V90H187.644V80.576H187.916L183.244 88.576H182.684L177.98 80.576H178.284V90H177.148Z" fill="black"/>
</svg>
