<svg width="299" height="104" viewBox="0 0 299 104" fill="none" xmlns="http://www.w3.org/2000/svg">
<path d="M141.824 74V62.8H146.656C147.904 62.8 148.869 63.0507 149.552 63.552C150.245 64.0533 150.592 64.7627 150.592 65.68C150.592 66.288 150.448 66.8 150.16 67.216C149.883 67.632 149.499 67.9467 149.008 68.16C148.528 68.3733 148 68.48 147.424 68.48L147.696 68.096C148.411 68.096 149.024 68.208 149.536 68.432C150.059 68.6453 150.464 68.9707 150.752 69.408C151.04 69.8347 151.184 70.368 151.184 71.008C151.184 71.9573 150.832 72.6933 150.128 73.216C149.435 73.7387 148.384 74 146.976 74H141.824ZM143.008 73.024H146.96C147.941 73.024 148.693 72.8587 149.216 72.528C149.739 72.1867 150 71.648 150 70.912C150 70.1867 149.739 69.6587 149.216 69.328C148.693 68.9867 147.941 68.816 146.96 68.816H142.88V67.84H146.576C147.472 67.84 148.165 67.6693 148.656 67.328C149.157 66.9867 149.408 66.48 149.408 65.808C149.408 65.1253 149.157 64.6187 148.656 64.288C148.165 63.9467 147.472 63.776 146.576 63.776H143.008V73.024ZM153.023 67.808H158.943V68.816H153.023V67.808ZM153.151 72.976H159.887V74H151.967V62.8H159.647V63.824H153.151V72.976ZM160.75 74V62.8H161.934V72.976H168.206V74H160.75ZM172.945 74.096C172.091 74.096 171.302 73.9573 170.577 73.68C169.862 73.392 169.238 72.992 168.705 72.48C168.182 71.968 167.771 71.3653 167.473 70.672C167.185 69.9787 167.041 69.2213 167.041 68.4C167.041 67.5787 167.185 66.8213 167.473 66.128C167.771 65.4347 168.187 64.832 168.721 64.32C169.254 63.808 169.878 63.4133 170.593 63.136C171.318 62.848 172.107 62.704 172.961 62.704C173.814 62.704 174.593 62.8373 175.297 63.104C176.011 63.3707 176.619 63.776 177.121 64.32L176.385 65.072C175.915 64.6027 175.398 64.2667 174.833 64.064C174.267 63.8613 173.659 63.76 173.009 63.76C172.315 63.76 171.675 63.8773 171.089 64.112C170.513 64.336 170.006 64.6613 169.569 65.088C169.142 65.504 168.806 65.9947 168.561 66.56C168.326 67.1147 168.209 67.728 168.209 68.4C168.209 69.0613 168.326 69.6747 168.561 70.24C168.806 70.8053 169.142 71.3013 169.569 71.728C170.006 72.144 170.513 72.4693 171.089 72.704C171.675 72.928 172.31 73.04 172.993 73.04C173.633 73.04 174.235 72.944 174.801 72.752C175.377 72.56 175.905 72.2347 176.385 71.776L177.057 72.672C176.523 73.1413 175.899 73.4987 175.185 73.744C174.47 73.9787 173.723 74.096 172.945 74.096ZM175.921 72.528V68.4H177.057V72.672L175.921 72.528ZM178.488 74V62.8H179.672V74H178.488ZM185.908 74.096C184.479 74.096 183.353 73.6853 182.532 72.864C181.711 72.0427 181.3 70.8267 181.3 69.216V62.8H182.484V69.168C182.484 70.4907 182.783 71.4667 183.38 72.096C183.977 72.7253 184.82 73.04 185.908 73.04C187.007 73.04 187.855 72.7253 188.452 72.096C189.049 71.4667 189.348 70.4907 189.348 69.168V62.8H190.5V69.216C190.5 70.8267 190.089 72.0427 189.268 72.864C188.457 73.6853 187.337 74.096 185.908 74.096ZM192.148 74V62.8H193.124L198.244 71.536H197.732L202.804 62.8H203.78V74H202.644V64.576H202.916L198.244 72.576H197.684L192.98 64.576H193.284V74H192.148Z" fill="black"/>
<path d="M69 76V0H106.09C115.622 0 122.736 1.84571 127.432 5.53714C132.129 9.15619 134.477 13.9333 134.477 19.8686C134.477 23.7771 133.476 27.2152 131.473 30.1829C129.539 33.0781 126.776 35.3943 123.185 37.1314C119.662 38.7962 115.449 39.6286 110.545 39.6286L112.617 34.4171C117.728 34.4171 122.183 35.2495 125.982 36.9143C129.781 38.5067 132.716 40.859 134.788 43.9714C136.929 47.0114 138 50.739 138 55.1543C138 61.7409 135.444 66.88 130.333 70.5714C125.291 74.1905 117.901 76 108.162 76H69ZM89.3063 60.4743H106.505C110.027 60.4743 112.686 59.859 114.482 58.6286C116.347 57.3257 117.279 55.3714 117.279 52.7657C117.279 50.16 116.347 48.2419 114.482 47.0114C112.686 45.7086 110.027 45.0571 106.505 45.0571H87.8559V30.1829H103.396C106.85 30.1829 109.44 29.5676 111.167 28.3371C112.893 27.1067 113.757 25.261 113.757 22.8C113.757 20.339 112.893 18.5295 111.167 17.3714C109.44 16.141 106.85 15.5257 103.396 15.5257H89.3063V60.4743Z" fill="black"/>
<rect width="69" height="76" fill="#FF1129"/>
<path d="M69 76V0H34.7674C27.9209 0 22.0372 1.12191 17.1163 3.36572C12.124 5.60953 8.27287 8.86667 5.56279 13.1371C2.85271 17.3352 1.49767 22.3295 1.49767 28.12C1.49767 33.8381 2.85271 38.7962 5.56279 42.9943C8.27287 47.12 12.124 50.3048 17.1163 52.5486C22.0372 54.72 27.9209 55.8057 34.7674 55.8057H57.2326L47.8186 46.7943V76H69ZM22.6791 76L41.293 48.3143H18.7209L0 76H22.6791ZM47.8186 49.0743L57.2326 39.1943H36.0512C31.6295 39.1943 28.3488 38.2171 26.2093 36.2629C23.9984 34.3086 22.893 31.5943 22.893 28.12C22.893 24.5733 23.9984 21.8229 26.2093 19.8686C28.3488 17.9143 31.6295 16.9371 36.0512 16.9371H57.2326L47.8186 7.05714V49.0743Z" fill="white"/>
</svg>
