<svg width="284" height="120" viewBox="0 0 284 120" fill="none" xmlns="http://www.w3.org/2000/svg">
<path d="M6.90838 43.1385L27.422 43.1385L68.8714 86.3264L46.5342 86.3264L6.90838 43.1385Z" fill="#4B93FF"/>
<path d="M38.2246 16.3635L53.182 31.3209V57.9118L38.2246 48.3669V16.3635Z" fill="#4B93FF"/>
<path d="M15.7884 31.321L0 16.3637H38.2244L53.1818 31.321L15.7884 31.321Z" fill="#4B93FF"/>
<path d="M88.0825 16.3635L103.04 31.3209V57.9118L88.0825 48.3669V16.3635Z" fill="#4B93FF"/>
<path d="M64.8153 31.321L49.8579 16.3637H88.0823L103.04 31.321L64.8153 31.321Z" fill="#4B93FF"/>
<path d="M96.3921 42.9546L111.349 57.912V86.1648L96.3921 71.6019V42.9546Z" fill="#4B93FF"/>
<path d="M73.1249 57.9119L58.1675 42.9545H96.3919L111.349 57.9119H73.1249Z" fill="#4B93FF"/>
<path d="M20.4628 57.9119L6.64795 42.9545H40.0943L53.182 57.9119H20.4628Z" fill="#4B93FF"/>
<path d="M116.52 0L116.86 6.87714L128.087 18.1039L127.947 11.4272L116.52 0Z" fill="black"/>
<path d="M111.69 6.19824L118.324 12.3966L138.963 12.3966L132.697 6.19824L111.69 6.19824Z" fill="black"/>
<path d="M126.824 90V78.8H128.008V88.976H134.28V90H126.824ZM138.635 90.096C137.205 90.096 136.08 89.6853 135.259 88.864C134.437 88.0427 134.027 86.8267 134.027 85.216V78.8H135.211V85.168C135.211 86.4907 135.509 87.4667 136.107 88.096C136.704 88.7253 137.547 89.04 138.635 89.04C139.733 89.04 140.581 88.7253 141.179 88.096C141.776 87.4667 142.075 86.4907 142.075 85.168V78.8H143.227V85.216C143.227 86.8267 142.816 88.0427 141.995 88.864C141.184 89.6853 140.064 90.096 138.635 90.096ZM143.166 90L147.758 83.792V84.704L143.438 78.8H144.798L148.43 83.728L147.902 83.744L151.534 78.8H152.814L148.542 84.624V83.792L153.118 90H151.742L147.87 84.736H148.366L144.526 90H143.166ZM153.964 83.808H159.884V84.816H153.964V83.808ZM154.092 88.976H160.828V90H152.908V78.8H160.588V79.824H154.092V88.976ZM161.691 90V78.8H162.667L167.787 87.536H167.275L172.347 78.8H173.323V90H172.187V80.576H172.459L167.787 88.576H167.227L162.523 80.576H162.827V90H161.691ZM175.052 90V78.8H179.884C181.132 78.8 182.097 79.0507 182.78 79.552C183.473 80.0533 183.82 80.7627 183.82 81.68C183.82 82.288 183.676 82.8 183.388 83.216C183.111 83.632 182.727 83.9467 182.236 84.16C181.756 84.3733 181.228 84.48 180.652 84.48L180.924 84.096C181.639 84.096 182.252 84.208 182.764 84.432C183.287 84.6453 183.692 84.9707 183.98 85.408C184.268 85.8347 184.412 86.368 184.412 87.008C184.412 87.9573 184.06 88.6933 183.356 89.216C182.663 89.7387 181.612 90 180.204 90H175.052ZM176.236 89.024H180.188C181.169 89.024 181.921 88.8587 182.444 88.528C182.967 88.1867 183.228 87.648 183.228 86.912C183.228 86.1867 182.967 85.6587 182.444 85.328C181.921 84.9867 181.169 84.816 180.188 84.816H176.108V83.84H179.804C180.7 83.84 181.393 83.6693 181.884 83.328C182.385 82.9867 182.636 82.48 182.636 81.808C182.636 81.1253 182.385 80.6187 181.884 80.288C181.393 79.9467 180.7 79.776 179.804 79.776H176.236V89.024ZM190.091 90.096C189.248 90.096 188.464 89.9573 187.739 89.68C187.024 89.392 186.4 88.992 185.867 88.48C185.344 87.9573 184.933 87.3547 184.635 86.672C184.347 85.9787 184.203 85.2213 184.203 84.4C184.203 83.5787 184.347 82.8267 184.635 82.144C184.933 81.4507 185.344 80.848 185.867 80.336C186.4 79.8133 187.024 79.4133 187.739 79.136C188.453 78.848 189.237 78.704 190.091 78.704C190.933 78.704 191.712 78.848 192.427 79.136C193.141 79.4133 193.76 79.808 194.283 80.32C194.816 80.832 195.227 81.4347 195.515 82.128C195.813 82.8213 195.963 83.5787 195.963 84.4C195.963 85.2213 195.813 85.9787 195.515 86.672C195.227 87.3653 194.816 87.968 194.283 88.48C193.76 88.992 193.141 89.392 192.427 89.68C191.712 89.9573 190.933 90.096 190.091 90.096ZM190.091 89.04C190.763 89.04 191.381 88.928 191.947 88.704C192.523 88.4693 193.019 88.144 193.435 87.728C193.861 87.3013 194.192 86.8107 194.427 86.256C194.661 85.6907 194.779 85.072 194.779 84.4C194.779 83.728 194.661 83.1147 194.427 82.56C194.192 81.9947 193.861 81.504 193.435 81.088C193.019 80.6613 192.523 80.336 191.947 80.112C191.381 79.8773 190.763 79.76 190.091 79.76C189.419 79.76 188.795 79.8773 188.219 80.112C187.643 80.336 187.141 80.6613 186.715 81.088C186.299 81.504 185.968 81.9947 185.723 82.56C185.488 83.1147 185.371 83.728 185.371 84.4C185.371 85.0613 185.488 85.6747 185.723 86.24C185.968 86.8053 186.299 87.3013 186.715 87.728C187.141 88.144 187.643 88.4693 188.219 88.704C188.795 88.928 189.419 89.04 190.091 89.04ZM201.208 90.096C199.779 90.096 198.654 89.6853 197.832 88.864C197.011 88.0427 196.6 86.8267 196.6 85.216V78.8H197.784V85.168C197.784 86.4907 198.083 87.4667 198.68 88.096C199.278 88.7253 200.12 89.04 201.208 89.04C202.307 89.04 203.155 88.7253 203.752 88.096C204.35 87.4667 204.648 86.4907 204.648 85.168V78.8H205.8V85.216C205.8 86.8267 205.39 88.0427 204.568 88.864C203.758 89.6853 202.638 90.096 201.208 90.096ZM207.448 90V78.8H211.64C212.59 78.8 213.406 78.9547 214.088 79.264C214.771 79.5627 215.294 80 215.656 80.576C216.03 81.1413 216.216 81.8293 216.216 82.64C216.216 83.4293 216.03 84.112 215.656 84.688C215.294 85.2533 214.771 85.6907 214.088 86C213.406 86.2987 212.59 86.448 211.64 86.448H208.104L208.632 85.904V90H207.448ZM215.096 90L212.216 85.936H213.496L216.392 90H215.096ZM208.632 86L208.104 85.44H211.608C212.728 85.44 213.576 85.1947 214.152 84.704C214.739 84.2133 215.032 83.5253 215.032 82.64C215.032 81.744 214.739 81.0507 214.152 80.56C213.576 80.0693 212.728 79.824 211.608 79.824H208.104L208.632 79.264V86ZM222.003 90.096C221.15 90.096 220.36 89.9573 219.635 89.68C218.92 89.392 218.296 88.992 217.763 88.48C217.24 87.968 216.83 87.3653 216.531 86.672C216.243 85.9787 216.099 85.2213 216.099 84.4C216.099 83.5787 216.243 82.8213 216.531 82.128C216.83 81.4347 217.246 80.832 217.779 80.32C218.312 79.808 218.936 79.4133 219.651 79.136C220.376 78.848 221.166 78.704 222.019 78.704C222.872 78.704 223.651 78.8373 224.355 79.104C225.07 79.3707 225.678 79.776 226.179 80.32L225.443 81.072C224.974 80.6027 224.456 80.2667 223.891 80.064C223.326 79.8613 222.718 79.76 222.067 79.76C221.374 79.76 220.734 79.8773 220.147 80.112C219.571 80.336 219.064 80.6613 218.627 81.088C218.2 81.504 217.864 81.9947 217.619 82.56C217.384 83.1147 217.267 83.728 217.267 84.4C217.267 85.0613 217.384 85.6747 217.619 86.24C217.864 86.8053 218.2 87.3013 218.627 87.728C219.064 88.144 219.571 88.4693 220.147 88.704C220.734 88.928 221.368 89.04 222.051 89.04C222.691 89.04 223.294 88.944 223.859 88.752C224.435 88.56 224.963 88.2347 225.443 87.776L226.115 88.672C225.582 89.1413 224.958 89.4987 224.243 89.744C223.528 89.9787 222.782 90.096 222.003 90.096ZM224.979 88.528V84.4H226.115V88.672L224.979 88.528Z" fill="black"/>
</svg>
